<?xml version="1.0" standalone="yes"?>

<svg version="1.1" viewBox="0.0 0.0 4561.0 3268.0" fill="none" stroke="none" stroke-linecap="square" stroke-miterlimit="10" xmlns="http://www.w3.org/2000/svg" xmlns:xlink="http://www.w3.org/1999/xlink"><clipPath id="p.0"><path d="m0 0l4561.0 0l0 3268.0l-4561.0 0l0 -3268.0z" clip-rule="nonzero"></path></clipPath><g clip-path="url(#p.0)"><path fill="#000000" fill-opacity="0.0" d="m0 0l4561.2466 0l0 3268.021l-4561.2466 0z" fill-rule="nonzero"></path><path fill="#cfe2f3" d="m163.30708 88.419945l202.99214 0l0 424.97635l-202.99214 0z" fill-rule="nonzero"></path><path stroke="#000000" stroke-width="2.0" stroke-linejoin="round" stroke-linecap="butt" d="m163.30708 88.419945l202.99214 0l0 424.97635l-202.99214 0z" fill-rule="nonzero"></path><path fill="#cfe2f3" d="m189.30708 163.6483l150.99214 0l0 57.007874l-150.99214 0z" fill-rule="nonzero"></path><path stroke="#000000" stroke-width="2.0" stroke-linejoin="round" stroke-linecap="butt" d="m189.30708 163.6483l150.99214 0l0 57.007874l-150.99214 0z" fill-rule="nonzero"></path><path fill="#cfe2f3" d="m189.30708 248.6483l150.99214 0l0 57.00786l-150.99214 0z" fill-rule="nonzero"></path><path stroke="#000000" stroke-width="2.0" stroke-linejoin="round" stroke-linecap="butt" d="m189.30708 248.6483l150.99214 0l0 57.00786l-150.99214 0z" fill-rule="nonzero"></path><path fill="#cfe2f3" d="m189.30708 333.6483l150.99214 0l0 57.007874l-150.99214 0z" fill-rule="nonzero"></path><path stroke="#000000" stroke-width="2.0" stroke-linejoin="round" stroke-linecap="butt" d="m189.30708 333.6483l150.99214 0l0 57.007874l-150.99214 0z" fill-rule="nonzero"></path><path fill="#cfe2f3" d="m189.30708 418.6483l150.99214 0l0 57.007874l-150.99214 0z" fill-rule="nonzero"></path><path stroke="#000000" stroke-width="2.0" stroke-linejoin="round" stroke-linecap="butt" d="m189.30708 418.6483l150.99214 0l0 57.007874l-150.99214 0z" fill-rule="nonzero"></path><path fill="#cfe2f3" d="m475.3071 844.8845l202.9921 0l0 424.97632l-202.9921 0z" fill-rule="nonzero"></path><path stroke="#000000" stroke-width="2.0" stroke-linejoin="round" stroke-linecap="butt" d="m475.3071 844.8845l202.9921 0l0 424.97632l-202.9921 0z" fill-rule="nonzero"></path><path fill="#cfe2f3" d="m501.3071 872.87665l150.9921 0l0 57.007874l-150.9921 0z" fill-rule="nonzero"></path><path stroke="#000000" stroke-width="2.0" stroke-linejoin="round" stroke-linecap="butt" d="m501.3071 872.87665l150.9921 0l0 57.007874l-150.9921 0z" fill-rule="nonzero"></path><path fill="#cfe2f3" d="m501.3071 957.87665l150.9921 0l0 57.007874l-150.9921 0z" fill-rule="nonzero"></path><path stroke="#000000" stroke-width="2.0" stroke-linejoin="round" stroke-linecap="butt" d="m501.3071 957.87665l150.9921 0l0 57.007874l-150.9921 0z" fill-rule="nonzero"></path><path fill="#cfe2f3" d="m501.3071 1042.8766l150.9921 0l0 57.007935l-150.9921 0z" fill-rule="nonzero"></path><path stroke="#000000" stroke-width="2.0" stroke-linejoin="round" stroke-linecap="butt" d="m501.3071 1042.8766l150.9921 0l0 57.007935l-150.9921 0z" fill-rule="nonzero"></path><path fill="#cfe2f3" d="m501.3071 1127.8766l150.9921 0l0 57.007935l-150.9921 0z" fill-rule="nonzero"></path><path stroke="#000000" stroke-width="2.0" stroke-linejoin="round" stroke-linecap="butt" d="m501.3071 1127.8766l150.9921 0l0 57.007935l-150.9921 0z" fill-rule="nonzero"></path><path fill="#cfe2f3" d="m752.30707 305.65616l202.99213 0l0 424.9764l-202.99213 0z" fill-rule="nonzero"></path><path stroke="#000000" stroke-width="2.0" stroke-linejoin="round" stroke-linecap="butt" d="m752.30707 305.65616l202.99213 0l0 424.9764l-202.99213 0z" fill-rule="nonzero"></path><path fill="#cfe2f3" d="m778.30707 380.88452l150.99213 0l0 57.007874l-150.99213 0z" fill-rule="nonzero"></path><path stroke="#000000" stroke-width="2.0" stroke-linejoin="round" stroke-linecap="butt" d="m778.30707 380.88452l150.99213 0l0 57.007874l-150.99213 0z" fill-rule="nonzero"></path><path fill="#cfe2f3" d="m778.30707 465.88452l150.99213 0l0 57.007874l-150.99213 0z" fill-rule="nonzero"></path><path stroke="#000000" stroke-width="2.0" stroke-linejoin="round" stroke-linecap="butt" d="m778.30707 465.88452l150.99213 0l0 57.007874l-150.99213 0z" fill-rule="nonzero"></path><path fill="#cfe2f3" d="m778.30707 550.8845l150.99213 0l0 57.007874l-150.99213 0z" fill-rule="nonzero"></path><path stroke="#000000" stroke-width="2.0" stroke-linejoin="round" stroke-linecap="butt" d="m778.30707 550.8845l150.99213 0l0 57.007874l-150.99213 0z" fill-rule="nonzero"></path><path fill="#cfe2f3" d="m778.30707 635.8845l150.99213 0l0 57.007874l-150.99213 0z" fill-rule="nonzero"></path><path stroke="#000000" stroke-width="2.0" stroke-linejoin="round" stroke-linecap="butt" d="m778.30707 635.8845l150.99213 0l0 57.007874l-150.99213 0z" fill-rule="nonzero"></path><path fill="#cfe2f3" d="m1020.30707 153.90027l202.99213 0l0 424.97638l-202.99213 0z" fill-rule="nonzero"></path><path stroke="#000000" stroke-width="2.0" stroke-linejoin="round" stroke-linecap="butt" d="m1020.30707 153.90027l202.99213 0l0 424.97638l-202.99213 0z" fill-rule="nonzero"></path><path fill="#cfe2f3" d="m1046.3071 229.12862l150.99207 0l0 57.00786l-150.99207 0z" fill-rule="nonzero"></path><path stroke="#000000" stroke-width="2.0" stroke-linejoin="round" stroke-linecap="butt" d="m1046.3071 229.12862l150.99207 0l0 57.00786l-150.99207 0z" fill-rule="nonzero"></path><path fill="#cfe2f3" d="m1046.3071 314.1286l150.99207 0l0 57.007874l-150.99207 0z" fill-rule="nonzero"></path><path stroke="#000000" stroke-width="2.0" stroke-linejoin="round" stroke-linecap="butt" d="m1046.3071 314.1286l150.99207 0l0 57.007874l-150.99207 0z" fill-rule="nonzero"></path><path fill="#cfe2f3" d="m1046.3071 399.1286l150.99207 0l0 57.007874l-150.99207 0z" fill-rule="nonzero"></path><path stroke="#000000" stroke-width="2.0" stroke-linejoin="round" stroke-linecap="butt" d="m1046.3071 399.1286l150.99207 0l0 57.007874l-150.99207 0z" fill-rule="nonzero"></path><path fill="#cfe2f3" d="m1046.3071 484.1286l150.99207 0l0 57.007874l-150.99207 0z" fill-rule="nonzero"></path><path stroke="#000000" stroke-width="2.0" stroke-linejoin="round" stroke-linecap="butt" d="m1046.3071 484.1286l150.99207 0l0 57.007874l-150.99207 0z" fill-rule="nonzero"></path><path fill="#000000" fill-opacity="0.0" d="m340.29922 277.15222l513.5039 28.503937" fill-rule="nonzero"></path><path stroke="#000000" stroke-width="2.0" stroke-linejoin="round" stroke-linecap="butt" d="m340.29922 277.15222l501.52237 27.838867" fill-rule="evenodd"></path><path fill="#000000" stroke="#000000" stroke-width="2.0" stroke-linecap="butt" d="m841.6385 308.2895l9.245361 -2.7953796l-8.87915 -3.801422z" fill-rule="evenodd"></path><path fill="#000000" fill-opacity="0.0" d="m340.29922 362.15222l236.50394 482.7323" fill-rule="nonzero"></path><path stroke="#000000" stroke-width="2.0" stroke-linejoin="round" stroke-linecap="butt" d="m340.29922 362.15222l231.22433 471.95612" fill-rule="evenodd"></path><path fill="#000000" stroke="#000000" stroke-width="2.0" stroke-linecap="butt" d="m568.557 835.5617l6.959778 6.6972046l-1.0266113 -9.604004z" fill-rule="evenodd"></path><path fill="#000000" fill-opacity="0.0" d="m338.90552 190.81364l782.8976 -36.913376" fill-rule="nonzero"></path><path stroke="#000000" stroke-width="2.0" stroke-linejoin="round" stroke-linecap="butt" d="m338.90552 190.81364l770.9109 -36.34822" fill-rule="evenodd"></path><path fill="#000000" stroke="#000000" stroke-width="2.0" stroke-linecap="butt" d="m1109.972 157.76523l8.910522 -3.7272644l-9.22168 -2.8723297z" fill-rule="evenodd"></path><path fill="#cfe2f3" d="m786.30707 1137.9633l202.99213 0l0 424.97632l-202.99213 0z" fill-rule="nonzero"></path><path stroke="#000000" stroke-width="2.0" stroke-linejoin="round" stroke-linecap="butt" d="m786.30707 1137.9633l202.99213 0l0 424.97632l-202.99213 0z" fill-rule="nonzero"></path><path fill="#cfe2f3" d="m812.30707 1165.9553l150.99213 0l0 57.007935l-150.99213 0z" fill-rule="nonzero"></path><path stroke="#000000" stroke-width="2.0" stroke-linejoin="round" stroke-linecap="butt" d="m812.30707 1165.9553l150.99213 0l0 57.007935l-150.99213 0z" fill-rule="nonzero"></path><path fill="#cfe2f3" d="m812.30707 1250.9553l150.99213 0l0 57.007935l-150.99213 0z" fill-rule="nonzero"></path><path stroke="#000000" stroke-width="2.0" stroke-linejoin="round" stroke-linecap="butt" d="m812.30707 1250.9553l150.99213 0l0 57.007935l-150.99213 0z" fill-rule="nonzero"></path><path fill="#cfe2f3" d="m812.30707 1335.9553l150.99213 0l0 57.007935l-150.99213 0z" fill-rule="nonzero"></path><path stroke="#000000" stroke-width="2.0" stroke-linejoin="round" stroke-linecap="butt" d="m812.30707 1335.9553l150.99213 0l0 57.007935l-150.99213 0z" fill-rule="nonzero"></path><path fill="#cfe2f3" d="m812.30707 1420.9553l150.99213 0l0 57.007935l-150.99213 0z" fill-rule="nonzero"></path><path stroke="#000000" stroke-width="2.0" stroke-linejoin="round" stroke-linecap="butt" d="m812.30707 1420.9553l150.99213 0l0 57.007935l-150.99213 0z" fill-rule="nonzero"></path><path fill="#cfe2f3" d="m1046.8071 1025.8845l202.99207 0l0 424.97632l-202.99207 0z" fill-rule="nonzero"></path><path stroke="#000000" stroke-width="2.0" stroke-linejoin="round" stroke-linecap="butt" d="m1046.8071 1025.8845l202.99207 0l0 424.97632l-202.99207 0z" fill-rule="nonzero"></path><path fill="#cfe2f3" d="m1078.3071 1054.8766l150.99207 0l0 57.007935l-150.99207 0z" fill-rule="nonzero"></path><path stroke="#000000" stroke-width="2.0" stroke-linejoin="round" stroke-linecap="butt" d="m1078.3071 1054.8766l150.99207 0l0 57.007935l-150.99207 0z" fill-rule="nonzero"></path><path fill="#cfe2f3" d="m1078.3071 1139.8766l150.99207 0l0 57.007935l-150.99207 0z" fill-rule="nonzero"></path><path stroke="#000000" stroke-width="2.0" stroke-linejoin="round" stroke-linecap="butt" d="m1078.3071 1139.8766l150.99207 0l0 57.007935l-150.99207 0z" fill-rule="nonzero"></path><path fill="#cfe2f3" d="m1078.3071 1224.8766l150.99207 0l0 57.007935l-150.99207 0z" fill-rule="nonzero"></path><path stroke="#000000" stroke-width="2.0" stroke-linejoin="round" stroke-linecap="butt" d="m1078.3071 1224.8766l150.99207 0l0 57.007935l-150.99207 0z" fill-rule="nonzero"></path><path fill="#cfe2f3" d="m1078.3071 1309.8766l150.99207 0l0 57.007935l-150.99207 0z" fill-rule="nonzero"></path><path stroke="#000000" stroke-width="2.0" stroke-linejoin="round" stroke-linecap="butt" d="m1078.3071 1309.8766l150.99207 0l0 57.007935l-150.99207 0z" fill-rule="nonzero"></path><path fill="#cfe2f3" d="m1307.3071 870.8924l202.99207 0l0 424.97638l-202.99207 0z" fill-rule="nonzero"></path><path stroke="#000000" stroke-width="2.0" stroke-linejoin="round" stroke-linecap="butt" d="m1307.3071 870.8924l202.99207 0l0 424.97638l-202.99207 0z" fill-rule="nonzero"></path><path fill="#cfe2f3" d="m1333.3071 898.8845l150.99207 0l0 57.007874l-150.99207 0z" fill-rule="nonzero"></path><path stroke="#000000" stroke-width="2.0" stroke-linejoin="round" stroke-linecap="butt" d="m1333.3071 898.8845l150.99207 0l0 57.007874l-150.99207 0z" fill-rule="nonzero"></path><path fill="#cfe2f3" d="m1333.3071 983.8845l150.99207 0l0 57.007812l-150.99207 0z" fill-rule="nonzero"></path><path stroke="#000000" stroke-width="2.0" stroke-linejoin="round" stroke-linecap="butt" d="m1333.3071 983.8845l150.99207 0l0 57.007812l-150.99207 0z" fill-rule="nonzero"></path><path fill="#cfe2f3" d="m1333.3071 1068.8845l150.99207 0l0 57.007812l-150.99207 0z" fill-rule="nonzero"></path><path stroke="#000000" stroke-width="2.0" stroke-linejoin="round" stroke-linecap="butt" d="m1333.3071 1068.8845l150.99207 0l0 57.007812l-150.99207 0z" fill-rule="nonzero"></path><path fill="#cfe2f3" d="m1333.3071 1153.8845l150.99207 0l0 57.007812l-150.99207 0z" fill-rule="nonzero"></path><path stroke="#000000" stroke-width="2.0" stroke-linejoin="round" stroke-linecap="butt" d="m1333.3071 1153.8845l150.99207 0l0 57.007812l-150.99207 0z" fill-rule="nonzero"></path><path fill="#000000" fill-opacity="0.0" d="m652.2992 901.38055l756.5039 -30.48816" fill-rule="nonzero"></path><path stroke="#000000" stroke-width="2.0" stroke-linejoin="round" stroke-linecap="butt" d="m652.2992 901.38055l744.5137 -30.005005" fill-rule="evenodd"></path><path fill="#000000" stroke="#000000" stroke-width="2.0" stroke-linecap="butt" d="m1396.9459 874.6764l8.935791 -3.6662598l-9.201904 -2.9353027z" fill-rule="evenodd"></path><path fill="#000000" fill-opacity="0.0" d="m652.2992 986.38055l496.0039 39.503967" fill-rule="nonzero"></path><path stroke="#000000" stroke-width="2.0" stroke-linejoin="round" stroke-linecap="butt" d="m652.2992 986.38055l484.04187 38.55121" fill-rule="evenodd"></path><path fill="#000000" stroke="#000000" stroke-width="2.0" stroke-linecap="butt" d="m1136.0787 1028.2249l9.309814 -2.5725098l-8.785278 -4.013611z" fill-rule="evenodd"></path><path fill="#000000" fill-opacity="0.0" d="m652.2992 1071.3806l235.50397 66.58264" fill-rule="nonzero"></path><path stroke="#000000" stroke-width="2.0" stroke-linejoin="round" stroke-linecap="butt" d="m652.2992 1071.3806l223.9566 63.317993" fill-rule="evenodd"></path><path fill="#000000" stroke="#000000" stroke-width="2.0" stroke-linecap="butt" d="m875.35706 1137.8774l9.632568 -0.7095947l-7.835083 -5.6481934z" fill-rule="evenodd"></path></g></svg>

